<?xml version="1.0" standalone="no"?>
<!DOCTYPE svg PUBLIC "-//W3C//DTD SVG 20010904//EN"
 "http://www.w3.org/TR/2001/REC-SVG-20010904/DTD/svg10.dtd">
<svg version="1.0" xmlns="http://www.w3.org/2000/svg"
 width="330.000000pt" height="330.000000pt" viewBox="0 0 330.000000 330.000000"
 preserveAspectRatio="xMidYMid meet">
<metadata>
Created by potrace 1.11, written by Peter Selinger 2001-2013
</metadata>
<g transform="translate(0.000000,330.000000) scale(0.100000,-0.100000)"
fill="#000000" stroke="none">
<path d="M1765 3070 c-62 -7 -95 -20 -130 -50 -36 -31 -71 -33 -130 -5 -78 35
-96 38 -182 30 -71 -7 -79 -10 -122 -49 -28 -26 -71 -52 -108 -65 -60 -22 -63
-25 -75 -70 -12 -43 -17 -48 -75 -76 -78 -38 -151 -98 -169 -140 -7 -18 -29
-48 -49 -68 -32 -32 -35 -40 -35 -94 0 -35 -7 -73 -16 -92 -8 -17 -19 -57 -24
-89 -5 -31 -19 -82 -31 -112 -15 -38 -22 -78 -23 -130 -1 -118 10 -167 49
-205 26 -27 34 -44 39 -92 12 -93 27 -145 41 -139 9 3 23 -19 40 -62 35 -85
113 -252 118 -252 5 0 -18 135 -33 190 -17 65 3 72 26 9 29 -79 39 -71 39 32
0 84 2 91 25 109 41 31 101 40 272 40 179 0 267 -15 301 -49 15 -14 22 -37 25
-81 5 -67 15 -76 31 -29 15 42 38 58 84 59 50 0 71 -12 87 -50 19 -47 29 -36
32 37 3 67 3 68 43 90 62 35 167 54 325 60 223 8 244 -5 257 -151 3 -42 10
-76 14 -76 5 0 13 19 19 43 19 71 20 75 35 81 18 6 19 -20 4 -79 -5 -22 -13
-73 -17 -113 -9 -80 1 -81 33 -2 10 25 23 59 30 75 7 17 16 40 19 52 4 12 15
25 26 28 23 7 35 35 15 35 -19 0 -20 -3 15 72 28 60 47 127 84 298 9 45 17
130 18 210 1 111 -3 150 -21 220 -37 140 -77 191 -208 269 -47 28 -75 52 -83
71 -17 41 -36 55 -115 80 -83 26 -145 65 -145 91 0 10 -15 34 -34 54 -30 30
-41 35 -82 35 -34 0 -62 8 -101 30 -29 17 -58 29 -65 29 -7 -1 -40 -5 -73 -9z
m-353 -1091 l42 -92 160 7 c178 8 177 7 228 85 31 50 35 44 13 -19 -8 -24 -13
-45 -10 -48 3 -3 30 -7 61 -10 53 -4 57 -3 96 34 33 31 37 33 19 9 -21 -28
-21 -30 -4 -36 43 -18 75 -9 112 29 20 20 47 51 58 67 l22 30 -18 -70 -17 -70
-135 -7 c-153 -7 -160 -9 -185 -28 -15 -12 -16 -12 -9 -1 6 11 5 12 -6 5 -8
-5 -18 -9 -23 -9 -13 0 -27 -43 -16 -50 6 -4 10 2 10 11 0 17 1 17 13 0 11
-15 21 -16 97 -7 134 17 361 14 391 -4 16 -11 10 12 -12 39 -12 15 -24 25 -27
22 -3 -3 3 -16 14 -28 10 -13 4 -9 -14 7 -33 29 -33 30 -10 33 13 2 40 22 61
45 l38 42 -21 -42 c-11 -23 -20 -46 -20 -51 0 -5 34 -26 75 -47 96 -47 101
-69 13 -58 -92 11 -350 8 -447 -6 -110 -16 -179 -43 -221 -86 -32 -33 -38 -35
-96 -35 -50 0 -66 4 -76 19 -38 54 -155 81 -358 81 -109 0 -343 -28 -370 -45
-7 -4 -20 74 -20 127 0 26 1 26 43 -19 l43 -46 40 14 c21 7 42 12 46 11 4 -1
13 8 19 21 11 20 11 21 -4 9 -13 -11 -19 -7 -41 30 -27 47 -96 201 -96 215 0
4 13 -14 28 -42 15 -27 51 -85 79 -127 45 -68 50 -79 37 -95 -17 -23 -18 -38
-1 -26 6 5 24 9 39 8 15 0 25 2 23 6 -3 3 10 6 28 6 17 -1 107 0 200 1 149 2
167 4 167 19 0 15 2 14 15 -3 11 -15 14 -16 15 -3 0 8 -7 24 -15 35 -8 11 -15
14 -15 7 0 -14 -21 -13 -31 1 -8 10 -27 12 -114 16 -56 2 -58 2 -27 11 26 8
32 14 27 27 -5 14 -4 15 6 5 7 -7 28 -13 46 -13 36 0 40 10 22 57 -16 39 -38
123 -33 123 2 0 23 -41 46 -91z m-218 -71 c31 -41 33 -48 17 -48 -10 0 -21 6
-24 13 -3 6 -13 30 -22 52 -20 46 -19 46 29 -17z"/>
<path d="M1970 1587 c-121 -35 -138 -69 -50 -98 30 -10 83 -21 117 -24 61 -6
62 -6 69 19 3 14 4 42 2 61 -4 31 -2 34 17 29 11 -3 33 -15 49 -26 18 -13 27
-16 24 -7 -15 44 -144 70 -228 46z m-10 -27 c0 -5 -9 -10 -21 -10 -11 0 -17 5
-14 10 3 6 13 10 21 10 8 0 14 -4 14 -10z"/>
<path d="M1187 1556 c-41 -15 -77 -43 -77 -59 0 -6 10 -1 23 11 12 11 34 25
50 31 26 10 27 9 21 -14 -9 -36 14 -95 37 -95 11 0 19 7 19 17 0 13 3 14 12 5
18 -18 41 -15 113 14 54 22 66 30 63 47 -6 42 -184 72 -261 43z m95 -28 c-9
-9 -15 -9 -24 0 -10 10 -10 15 2 22 9 6 19 5 24 0 7 -7 6 -14 -2 -22z"/>
<path d="M1844 1185 c-4 -10 -20 -15 -48 -15 -22 0 -61 -5 -86 -11 -25 -6 -61
-11 -80 -11 -35 0 -35 0 -7 -10 15 -5 27 -14 27 -19 0 -15 48 -10 57 6 10 17
59 33 86 27 9 -2 15 -8 12 -13 -9 -14 15 -11 29 4 7 6 15 22 18 35 7 25 1 30
-8 7z"/>
<path d="M2362 1162 c-54 -78 -69 -103 -133 -223 l-27 -49 30 2 c20 2 35 11
46 30 9 15 20 28 24 28 4 0 8 5 8 11 0 6 6 16 13 24 14 14 63 182 55 190 -2 2
-9 -3 -16 -13z"/>
<path d="M2438 1173 c7 -3 16 -2 19 1 4 3 -2 6 -13 5 -11 0 -14 -3 -6 -6z"/>
<path d="M1516 1141 c-18 -7 -18 -8 -2 -14 26 -10 33 -9 40 8 6 16 -7 18 -38
6z"/>
<path d="M1805 978 c-38 -4 -139 -10 -224 -14 -167 -7 -180 -19 -35 -31 108
-10 223 -2 327 21 119 27 83 39 -68 24z"/>
<path d="M1953 578 c-4 -7 -6 -40 -5 -73 l3 -60 -103 -135 c-104 -138 -218
-297 -218 -305 0 -3 261 -5 580 -5 l581 0 -15 29 c-29 56 -118 121 -266 195
-80 41 -183 86 -230 101 l-85 29 -99 108 c-106 116 -130 136 -143 116z m-73
-279 c0 -5 -4 -9 -10 -9 -5 0 -10 7 -10 16 0 8 5 12 10 9 6 -3 10 -10 10 -16z
m440 -259 c12 -8 12 -10 -3 -16 -22 -8 -50 3 -42 16 8 12 25 13 45 0z"/>
<path d="M1405 540 c-16 -11 -39 -35 -50 -54 -11 -19 -40 -67 -64 -108 l-44
-73 -155 -80 c-167 -86 -313 -197 -289 -221 2 -2 164 -3 361 -2 l356 3 -43 53
c-38 46 -45 63 -56 130 -16 92 -15 128 4 181 13 39 24 175 14 185 -3 3 -18 -4
-34 -14z"/>
</g>
</svg>
